<?xml version="1.0" encoding="UTF-8" standalone="no"?>
<svg
   xmlns:dc="http://purl.org/dc/elements/1.1/"
   xmlns:cc="http://creativecommons.org/ns#"
   xmlns:rdf="http://www.w3.org/1999/02/22-rdf-syntax-ns#"
   xmlns:svg="http://www.w3.org/2000/svg"
   xmlns="http://www.w3.org/2000/svg"
   xmlns:sodipodi="http://sodipodi.sourceforge.net/DTD/sodipodi-0.dtd"
   xmlns:inkscape="http://www.inkscape.org/namespaces/inkscape"
   viewBox="0 0 80 80"
   stroke-miterlimit="1.414"
   version="1.1"
   id="svg62"
   sodipodi:docname="ustc校徽.svg"
   inkscape:export-filename="C:\Users\jbyan\Desktop\logo.png"
   inkscape:export-xdpi="2000"
   inkscape:export-ydpi="2000"
   inkscape:version="0.92.4 (5da689c313, 2019-01-14)"
   width="80"
   height="80"
   style="clip-rule:evenodd;fill-rule:evenodd;stroke-linejoin:round;stroke-miterlimit:1.41400003">
  <metadata
     id="metadata68">
    <rdf:RDF>
      <cc:Work
         rdf:about="">
        <dc:format>image/svg+xml</dc:format>
        <dc:type
           rdf:resource="http://purl.org/dc/dcmitype/StillImage" />
        <dc:title></dc:title>
      </cc:Work>
    </rdf:RDF>
  </metadata>
  <defs
     id="defs66" />
  <sodipodi:namedview
     pagecolor="#ffffff"
     bordercolor="#666666"
     borderopacity="1"
     objecttolerance="10"
     gridtolerance="10"
     guidetolerance="10"
     inkscape:pageopacity="0"
     inkscape:pageshadow="2"
     inkscape:window-width="3840"
     inkscape:window-height="2054"
     id="namedview64"
     showgrid="false"
     inkscape:zoom="9.6851064"
     inkscape:cx="70.504174"
     inkscape:cy="68.730642"
     inkscape:window-x="-11"
     inkscape:window-y="-11"
     inkscape:window-maximized="1"
     inkscape:current-layer="svg62" />
  <filter
     id="dropshadow"
     height="1.3">
    <feGaussianBlur
       in="SourceAlpha"
       stdDeviation="2"
       id="feGaussianBlur2" />
    <feOffset
       dx="1"
       dy="2"
       result="offsetblur"
       id="feOffset4" />
    <feComponentTransfer
       id="feComponentTransfer8">
      <feFuncA
         type="linear"
         slope="0.2"
         id="feFuncA6" />
    </feComponentTransfer>
    <feMerge
       id="feMerge14">
      <feMergeNode
         id="feMergeNode10" />
      <feMergeNode
         in="SourceGraphic"
         id="feMergeNode12" />
    </feMerge>
  </filter>
  <filter
     id="dropshadow2"
     height="1.3">
    <feGaussianBlur
       in="SourceAlpha"
       stdDeviation="1"
       id="feGaussianBlur17" />
    <feOffset
       dx="1"
       dy="1"
       result="offsetblur"
       id="feOffset19" />
    <feComponentTransfer
       id="feComponentTransfer23">
      <feFuncA
         type="linear"
         slope="0.2"
         id="feFuncA21" />
    </feComponentTransfer>
    <feMerge
       id="feMerge29">
      <feMergeNode
         id="feMergeNode25" />
      <feMergeNode
         in="SourceGraphic"
         id="feMergeNode27" />
    </feMerge>
  </filter>
  <g
     id="g843"
     transform="translate(-3.9235501,-4.7341831)">
    <path
       style="fill:#004daa;fill-opacity:1"
       id="path46"
       d="m 43.768,23 c 12.147,0 21.998,9.852 21.998,22 0,12.147 -9.85,22 -21.998,22 -12.148,0 -22,-9.853 -22,-22 0,-12.148 9.852,-22 22,-22 m 15.76,43.688 C 54.788,70.131 48.804,70.624 43.77,68.513 38.734,70.626 32.75,70.133 28.01,66.69 23.27,63.247 20.953,57.707 21.405,52.268 17.84,48.13 16.458,42.286 18.269,36.714 c 1.81,-5.57 6.362,-9.485 11.676,-10.738 2.832,-4.668 7.963,-7.787 13.822,-7.787 5.857,0 10.988,3.117 13.82,7.785 5.316,1.25 9.868,5.167 11.68,10.738 1.81,5.57 0.427,11.415 -3.137,15.55 0.454,5.442 -1.863,10.983 -6.602,14.425"
       inkscape:connector-curvature="0" />
    <path
       style="fill:#004daa;fill-opacity:1;fill-rule:nonzero"
       id="path48"
       d="m 40.36,42.227 c 0,0.23 0.058,0.407 0.175,0.536 a 0.572,0.572 0 0 0 0.44,0.192 c 0.17,0 0.314,-0.062 0.426,-0.185 0.113,-0.123 0.17,-0.3 0.17,-0.534 a 0.694,0.694 0 0 0 -0.172,-0.49 0.566,0.566 0 0 0 -0.435,-0.186 c -0.204,0 -0.355,0.07 -0.454,0.21 -0.102,0.142 -0.15,0.293 -0.15,0.457 m 0.075,-1.86 a 0.52,0.52 0 0 0 0.14,0.388 0.51,0.51 0 0 0 0.376,0.14 0.515,0.515 0 0 0 0.38,-0.14 0.526,0.526 0 0 0 0.14,-0.39 0.504,0.504 0 0 0 -0.138,-0.375 0.504,0.504 0 0 0 -0.373,-0.14 0.523,0.523 0 0 0 -0.383,0.14 0.51,0.51 0 0 0 -0.142,0.377 m -0.17,0.84 a 0.964,0.964 0 0 1 -0.47,-0.376 0.978,0.978 0 0 1 -0.146,-0.522 c 0,-0.323 0.11,-0.59 0.337,-0.802 0.226,-0.212 0.548,-0.317 0.964,-0.317 0.414,0 0.734,0.104 0.962,0.316 0.228,0.21 0.342,0.48 0.342,0.802 0,0.2 -0.053,0.38 -0.157,0.538 a 0.998,0.998 0 0 1 -0.44,0.36 c 0.24,0.095 0.423,0.237 0.548,0.423 0.125,0.185 0.188,0.398 0.188,0.642 0,0.4 -0.128,0.726 -0.383,0.976 -0.256,0.252 -0.596,0.377 -1.02,0.377 -0.396,0 -0.724,-0.104 -0.987,-0.31 -0.31,-0.246 -0.465,-0.583 -0.465,-1.01 0,-0.233 0.06,-0.45 0.175,-0.645 0.117,-0.197 0.3,-0.348 0.55,-0.454 m -4.41,1.225 0.828,-0.084 a 0.71,0.71 0 0 0 0.212,0.445 0.567,0.567 0 0 0 0.843,-0.046 c 0.12,-0.142 0.18,-0.355 0.18,-0.638 0,-0.266 -0.058,-0.466 -0.18,-0.6 a 0.595,0.595 0 0 0 -0.464,-0.2 c -0.238,0 -0.452,0.106 -0.642,0.317 l -0.676,-0.098 0.427,-2.26 h 2.2 v 0.78 h -1.57 l -0.13,0.737 a 1.25,1.25 0 0 1 0.568,-0.14 c 0.37,0 0.683,0.135 0.938,0.403 0.257,0.27 0.386,0.617 0.386,1.046 0,0.358 -0.103,0.678 -0.31,0.958 -0.284,0.383 -0.675,0.573 -1.176,0.573 -0.4,0 -0.727,-0.106 -0.98,-0.32 a 1.325,1.325 0 0 1 -0.453,-0.87 m -1.82,-1.704 c 0,-0.27 -0.062,-0.478 -0.186,-0.625 -0.123,-0.148 -0.267,-0.22 -0.428,-0.22 a 0.478,0.478 0 0 0 -0.385,0.18 c -0.1,0.122 -0.153,0.322 -0.153,0.598 0,0.28 0.056,0.486 0.166,0.616 0.11,0.13 0.25,0.198 0.415,0.198 a 0.52,0.52 0 0 0 0.405,-0.19 c 0.11,-0.126 0.164,-0.31 0.164,-0.556 m -1.884,1.818 0.805,-0.09 c 0.02,0.165 0.073,0.286 0.155,0.365 a 0.46,0.46 0 0 0 0.328,0.117 c 0.173,0 0.318,-0.08 0.44,-0.237 0.12,-0.157 0.196,-0.485 0.23,-0.982 a 0.99,0.99 0 0 1 -0.784,0.364 c -0.342,0 -0.638,-0.133 -0.885,-0.395 -0.248,-0.264 -0.372,-0.607 -0.372,-1.03 0,-0.44 0.13,-0.795 0.393,-1.065 0.26,-0.27 0.594,-0.403 0.998,-0.403 0.44,0 0.802,0.17 1.085,0.51 0.283,0.34 0.425,0.9 0.425,1.68 0,0.795 -0.148,1.366 -0.44,1.718 -0.296,0.35 -0.68,0.527 -1.15,0.527 -0.34,0 -0.615,-0.09 -0.824,-0.27 -0.208,-0.182 -0.342,-0.452 -0.402,-0.81 M 30.552,43.55 H 29.72 v -3.14 a 2.85,2.85 0 0 1 -1.075,0.632 v -0.755 a 2.41,2.41 0 0 0 0.708,-0.404 c 0.256,-0.2 0.43,-0.43 0.524,-0.694 h 0.676 v 4.358 z"
       inkscape:connector-curvature="0" />
    <path
       style="fill:#004daa;fill-opacity:1"
       id="path50"
       d="m 43.768,7.876 c 13.416,0 25.172,7.12 31.695,17.79 A 36.94,36.94 0 0 1 80.89,45 C 80.89,65.5 64.267,82.123 43.768,82.123 23.268,82.123 6.644,65.5 6.644,45 6.644,24.5 23.269,7.876 43.768,7.876 m 0,-1.375 c 21.257,0 38.498,17.24 38.498,38.5 0,21.258 -17.24,38.5 -38.498,38.5 -21.26,0 -38.5,-17.242 -38.5,-38.5 0,-21.26 17.24,-38.5 38.5,-38.5"
       inkscape:connector-curvature="0" />
    <path
       style="fill:#004daa;fill-opacity:1;fill-rule:nonzero"
       id="path52"
       d="m 76.562,46.078 -0.873,-0.016 c 0.085,0.26 0.157,0.44 0.22,0.537 0.11,0.17 0.25,0.26 0.423,0.263 0.277,0.003 0.418,-0.117 0.42,-0.36 0.004,-0.123 -0.06,-0.268 -0.19,-0.425 m 0.248,-0.8 0.167,0.203 c 0.06,0.08 0.087,0.16 0.086,0.236 -0.004,0.205 -0.132,0.318 -0.385,0.342 0.098,0.113 0.183,0.24 0.258,0.38 0.074,0.142 0.11,0.254 0.11,0.337 A 0.54,0.54 0 0 1 76.89,47.15 0.458,0.458 0 0 1 76.536,47.306 C 76.243,47.3 76.016,47.131 75.856,46.798 A 5.675,5.675 0 0 1 75.564,46.06 L 75.38,46.058 c -0.363,-0.006 -0.546,0.1 -0.55,0.32 -0.005,0.247 0.063,0.374 0.203,0.376 a 0.67,0.67 0 0 0 0.09,-0.006 0.875,0.875 0 0 1 0.11,-0.005 c 0.063,0 0.12,0.025 0.165,0.068 a 0.2,0.2 0 0 1 0.07,0.162 0.23,0.23 0 0 1 -0.057,0.16 0.18,0.18 0 0 1 -0.135,0.057 c -0.18,-0.005 -0.323,-0.098 -0.43,-0.284 a 1.012,1.012 0 0 1 -0.13,-0.532 c 0.005,-0.266 0.06,-0.453 0.17,-0.565 0.118,-0.122 0.32,-0.18 0.606,-0.175 l 1.1,0.02 c 0.13,0 0.195,-0.038 0.195,-0.117 0.002,-0.06 -0.032,-0.14 -0.1,-0.243 l 0.126,-0.016 z m 0.12,2.486 -0.128,1.046 -0.07,-0.01 c 0.026,-0.208 -0.067,-0.325 -0.278,-0.35 l -1.248,-0.154 c -0.122,-0.015 -0.22,0.01 -0.29,0.072 a 0.397,0.397 0 0 0 -0.127,0.254 c -0.023,0.183 0.05,0.376 0.218,0.58 l 1.333,0.165 c 0.213,0.025 0.33,-0.066 0.357,-0.275 l 0.07,0.01 -0.13,1.045 -0.07,-0.008 c 0.026,-0.21 -0.066,-0.325 -0.277,-0.352 l -1.343,-0.165 c -0.106,-0.013 -0.175,0 -0.21,0.04 -0.035,0.037 -0.057,0.12 -0.065,0.242 l -0.07,-0.007 -0.143,-0.762 0.406,0.05 c -0.244,-0.262 -0.348,-0.535 -0.313,-0.82 0.047,-0.378 0.32,-0.537 0.823,-0.477 l 1.13,0.14 c 0.21,0.024 0.33,-0.067 0.355,-0.274 l 0.07,0.008 z m -0.412,2.753 -0.206,1.163 -0.07,-0.01 c 0.045,-0.25 -0.038,-0.393 -0.247,-0.43 l -1.318,-0.232 c -0.17,-0.03 -0.266,0.017 -0.29,0.142 a 0.627,0.627 0 0 0 0.008,0.194 l -0.074,-0.014 -0.124,-0.837 1.873,0.33 c 0.208,0.035 0.334,-0.07 0.38,-0.32 z m -3.163,-0.175 a 0.24,0.24 0 0 1 0.164,0.107 c 0.036,0.055 0.05,0.12 0.035,0.194 a 0.242,0.242 0 0 1 -0.1,0.163 c -0.053,0.038 -0.116,0.05 -0.188,0.038 a 0.257,0.257 0 0 1 -0.17,-0.1 0.234,0.234 0 0 1 -0.042,-0.19 0.258,0.258 0 0 1 0.3,-0.213 m 2.873,1.78 -0.273,1.017 -0.068,-0.02 c 0.055,-0.202 -0.02,-0.33 -0.227,-0.386 l -1.128,-0.3 c -0.3,-0.08 -0.48,0 -0.544,0.24 -0.052,0.19 -0.004,0.39 0.14,0.606 l 1.294,0.346 c 0.205,0.055 0.334,-0.018 0.39,-0.22 l 0.066,0.017 -0.27,1.018 -0.07,-0.017 c 0.054,-0.203 -0.02,-0.332 -0.227,-0.387 l -2.38,-0.64 c -0.112,-0.03 -0.186,-0.025 -0.22,0.01 -0.022,0.02 -0.05,0.1 -0.088,0.236 l -0.086,-0.026 c 0,-0.143 -0.007,-0.4 -0.022,-0.768 l 1.466,0.392 c -0.202,-0.288 -0.27,-0.557 -0.204,-0.803 0.108,-0.402 0.406,-0.54 0.895,-0.408 l 1.1,0.294 c 0.205,0.056 0.335,-0.018 0.39,-0.22 l 0.068,0.018 z m -1.187,2.54 c 0.253,0.492 0.285,0.984 0.094,1.48 -0.183,0.476 -0.487,0.8 -0.912,0.97 -0.406,0.156 -0.837,0.148 -1.294,-0.027 a 1.71,1.71 0 0 1 -0.97,-0.88 1.58,1.58 0 0 1 -0.04,-1.293 c 0.07,-0.185 0.17,-0.36 0.3,-0.53 0.132,-0.168 0.202,-0.263 0.21,-0.285 0.036,-0.082 0,-0.163 -0.104,-0.243 l 0.04,-0.103 1.07,0.36 -0.047,0.12 a 1.166,1.166 0 0 0 -0.763,0.116 c -0.228,0.123 -0.39,0.315 -0.49,0.576 -0.135,0.348 -0.103,0.673 0.096,0.972 0.188,0.28 0.49,0.5 0.907,0.66 0.407,0.155 0.78,0.183 1.117,0.085 0.336,-0.1 0.57,-0.315 0.698,-0.65 0.11,-0.283 0.142,-0.56 0.098,-0.83 a 2.01,2.01 0 0 0 -0.14,-0.455 l 0.13,-0.046 z m -3.182,6.062 c -0.29,-0.16 -0.555,-0.248 -0.79,-0.262 -0.29,-0.016 -0.5,0.088 -0.624,0.31 a 0.46,0.46 0 0 0 0.01,0.48 c 0.084,0.15 0.23,0.28 0.435,0.395 0.28,0.155 0.545,0.24 0.8,0.256 0.294,0.02 0.496,-0.072 0.608,-0.272 0.098,-0.178 0.088,-0.358 -0.03,-0.542 a 1.12,1.12 0 0 0 -0.41,-0.364 m 0.048,-0.498 c 0.29,0.18 0.483,0.42 0.573,0.716 0.09,0.298 0.055,0.582 -0.104,0.856 a 0.99,0.99 0 0 1 -0.665,0.483 1.183,1.183 0 0 1 -0.868,-0.136 c -0.294,-0.163 -0.488,-0.38 -0.582,-0.648 -0.102,-0.285 -0.07,-0.577 0.097,-0.876 0.164,-0.297 0.39,-0.484 0.68,-0.557 0.288,-0.074 0.578,-0.02 0.87,0.16 m -2.645,2.384 c -0.03,0.04 -0.033,0.106 -0.004,0.2 a 0.86,0.86 0 0 0 0.086,0.206 L 70.54,65 c 0.283,0.47 0.328,0.828 0.136,1.074 -0.15,0.193 -0.307,0.225 -0.473,0.094 -0.046,-0.036 -0.067,-0.09 -0.058,-0.16 a 0.316,0.316 0 0 1 0.066,-0.157 0.798,0.798 0 0 1 0.178,-0.128 0.372,0.372 0 0 0 0.11,-0.095 c 0.1,-0.127 -0.006,-0.403 -0.317,-0.83 l -1.884,-0.435 a 0.886,0.886 0 0 0 -0.253,-0.04 c -0.06,0.004 -0.124,0.038 -0.198,0.098 l -0.054,-0.043 0.632,-0.81 0.057,0.042 c -0.123,0.155 -0.148,0.26 -0.077,0.316 0.037,0.03 0.087,0.05 0.15,0.067 l 1.39,0.334 -0.717,-1.12 a 0.976,0.976 0 0 0 -0.133,-0.18 c -0.024,-0.018 -0.06,-0.02 -0.106,-0.004 a 0.33,0.33 0 0 0 -0.14,0.115 l -0.055,-0.042 0.414,-0.53 0.056,0.04 z m 0.103,3.863 c -0.1,-0.082 -0.226,-0.06 -0.38,0.067 -0.078,0.06 -0.206,0.2 -0.385,0.41 -0.14,0.168 -0.276,0.304 -0.408,0.41 0.026,0.234 0.083,0.39 0.172,0.463 0.183,0.155 0.433,0.043 0.746,-0.332 0.193,-0.23 0.308,-0.443 0.344,-0.642 0.033,-0.173 0.003,-0.297 -0.09,-0.376 m -1.63,-0.686 a 1.146,1.146 0 0 0 -0.49,-0.247 c -0.198,-0.038 -0.347,0.002 -0.447,0.12 -0.084,0.1 -0.11,0.206 -0.08,0.316 a 0.58,0.58 0 0 0 0.218,0.296 c 0.165,0.128 0.327,0.21 0.485,0.244 0.19,0.038 0.338,-0.005 0.443,-0.13 0.16,-0.192 0.117,-0.39 -0.13,-0.6 m 0.008,-0.91 -0.265,0.318 c 0.125,0.02 0.25,0.085 0.375,0.19 0.177,0.15 0.274,0.33 0.285,0.537 0.013,0.206 -0.06,0.403 -0.215,0.59 -0.06,0.07 -0.126,0.133 -0.196,0.186 -0.032,0.21 -0.01,0.343 0.064,0.406 0.078,0.066 0.25,-0.06 0.515,-0.376 0.257,-0.304 0.464,-0.485 0.62,-0.54 0.146,-0.052 0.303,-0.007 0.467,0.13 0.172,0.144 0.23,0.378 0.175,0.7 a 1.73,1.73 0 0 1 -0.39,0.832 c -0.172,0.204 -0.362,0.328 -0.57,0.37 -0.17,0.035 -0.296,0.02 -0.38,-0.053 -0.072,-0.06 -0.11,-0.165 -0.11,-0.32 a 20.59,20.59 0 0 1 -0.013,-0.427 0.47,0.47 0 0 1 -0.197,0.076 c -0.072,0.01 -0.125,0 -0.16,-0.03 -0.08,-0.066 -0.126,-0.173 -0.14,-0.32 -0.008,-0.076 -0.005,-0.2 0.007,-0.378 -0.302,0.153 -0.576,0.13 -0.82,-0.076 a 0.747,0.747 0 0 1 -0.277,-0.55 c -0.014,-0.227 0.066,-0.442 0.243,-0.652 0.073,-0.09 0.19,-0.18 0.346,-0.266 0.156,-0.087 0.257,-0.16 0.302,-0.22 l 0.186,-0.254 0.15,0.127 z m -1.312,2.957 c -0.23,-0.237 -0.457,-0.398 -0.68,-0.48 -0.274,-0.1 -0.503,-0.063 -0.686,0.116 a 0.454,0.454 0 0 0 -0.132,0.46 c 0.037,0.168 0.138,0.337 0.302,0.506 0.222,0.23 0.452,0.39 0.69,0.477 0.276,0.104 0.496,0.075 0.66,-0.084 0.147,-0.14 0.19,-0.317 0.13,-0.527 a 1.14,1.14 0 0 0 -0.284,-0.47 m 0.192,-0.46 c 0.226,0.257 0.338,0.543 0.337,0.853 0,0.31 -0.116,0.573 -0.348,0.787 a 0.995,0.995 0 0 1 -0.78,0.27 c -0.3,-0.022 -0.563,-0.15 -0.79,-0.385 -0.233,-0.242 -0.356,-0.505 -0.367,-0.79 -0.014,-0.302 0.103,-0.572 0.35,-0.81 0.243,-0.235 0.514,-0.347 0.81,-0.334 0.3,0.015 0.56,0.15 0.787,0.41 m -1.223,2.59 -0.898,0.78 -0.045,-0.054 c 0.193,-0.17 0.22,-0.333 0.08,-0.493 l -1.634,-1.88 c -0.06,-0.067 -0.11,-0.103 -0.155,-0.108 -0.044,-0.006 -0.097,0.018 -0.16,0.073 a 1.796,1.796 0 0 0 -0.12,0.118 l -0.05,-0.057 c 0.097,-0.137 0.25,-0.373 0.46,-0.704 l 1.98,2.28 c 0.14,0.16 0.305,0.156 0.496,-0.01 l 0.047,0.053 z m -2.185,0.635 c -0.196,-0.27 -0.398,-0.458 -0.606,-0.57 -0.256,-0.138 -0.488,-0.132 -0.696,0.017 a 0.462,0.462 0 0 0 -0.195,0.438 c 0.014,0.172 0.09,0.353 0.23,0.544 0.187,0.257 0.392,0.45 0.616,0.57 0.26,0.14 0.482,0.144 0.667,0.008 0.164,-0.12 0.232,-0.286 0.202,-0.504 a 1.126,1.126 0 0 0 -0.218,-0.503 m 0.254,-0.432 c 0.188,0.29 0.26,0.586 0.216,0.893 -0.043,0.306 -0.196,0.55 -0.456,0.73 a 0.993,0.993 0 0 1 -0.807,0.16 1.2,1.2 0 0 1 -0.73,-0.49 c -0.198,-0.273 -0.282,-0.55 -0.254,-0.834 0.03,-0.3 0.18,-0.552 0.46,-0.753 0.273,-0.2 0.556,-0.273 0.85,-0.218 0.292,0.054 0.533,0.225 0.72,0.51 M 62,72.627 l -0.91,0.527 -0.036,-0.06 c 0.183,-0.107 0.22,-0.25 0.113,-0.435 l -0.63,-1.09 c -0.06,-0.105 -0.137,-0.17 -0.23,-0.188 a 0.385,0.385 0 0 0 -0.28,0.05 c -0.158,0.093 -0.27,0.268 -0.33,0.528 l 0.67,1.16 c 0.107,0.187 0.25,0.226 0.432,0.12 l 0.035,0.062 -0.913,0.526 -0.034,-0.06 c 0.182,-0.104 0.22,-0.25 0.112,-0.434 l -0.676,-1.17 c -0.054,-0.094 -0.106,-0.142 -0.158,-0.148 -0.053,-0.004 -0.13,0.03 -0.234,0.097 l -0.035,-0.062 0.522,-0.57 0.205,0.353 c 0.062,-0.35 0.217,-0.596 0.464,-0.74 0.33,-0.19 0.623,-0.068 0.875,0.37 l 0.57,0.987 c 0.106,0.183 0.25,0.223 0.43,0.12 l 0.036,0.06 z m -2.403,1.372 -0.93,0.495 -0.032,-0.062 c 0.185,-0.098 0.227,-0.24 0.127,-0.428 l -0.548,-1.032 c -0.146,-0.274 -0.328,-0.35 -0.548,-0.234 -0.174,0.09 -0.29,0.266 -0.346,0.518 l 0.627,1.18 c 0.1,0.19 0.243,0.234 0.428,0.135 l 0.033,0.062 -0.93,0.493 -0.033,-0.062 c 0.185,-0.1 0.228,-0.242 0.128,-0.43 l -1.158,-2.177 c -0.055,-0.102 -0.106,-0.154 -0.156,-0.154 -0.032,0 -0.11,0.03 -0.233,0.096 l -0.04,-0.08 c 0.104,-0.1 0.287,-0.278 0.547,-0.54 l 0.713,1.34 c 0.074,-0.345 0.222,-0.577 0.45,-0.698 0.366,-0.195 0.668,-0.07 0.906,0.377 l 0.535,1.004 c 0.1,0.19 0.242,0.234 0.426,0.136 L 59.596,74 Z m -2.845,0.542 c -0.027,0.28 -0.075,0.495 -0.143,0.645 a 0.83,0.83 0 0 1 -0.464,0.45 0.86,0.86 0 0 1 -0.728,-0.028 c -0.26,-0.125 -0.454,-0.35 -0.583,-0.67 -0.13,-0.32 -0.142,-0.625 -0.04,-0.91 0.104,-0.286 0.315,-0.493 0.632,-0.622 a 0.904,0.904 0 0 1 0.535,-0.055 c 0.172,0.04 0.282,0.118 0.33,0.235 a 0.207,0.207 0 0 1 -0.003,0.167 0.217,0.217 0 0 1 -0.125,0.12 0.2,0.2 0 0 1 -0.176,-0.005 0.212,0.212 0 0 1 -0.116,-0.113 0.337,0.337 0 0 0 -0.184,-0.193 0.364,0.364 0 0 0 -0.273,0.006 0.587,0.587 0 0 0 -0.383,0.504 c -0.02,0.182 0.007,0.366 0.083,0.554 0.1,0.244 0.253,0.428 0.46,0.55 0.21,0.126 0.412,0.148 0.61,0.067 0.252,-0.1 0.414,-0.338 0.486,-0.71 l 0.08,0.01 z m -3.03,0.313 c -0.156,-0.35 -0.37,-0.48 -0.64,-0.386 -0.304,0.104 -0.418,0.346 -0.342,0.723 l 0.98,-0.337 z m 0.81,0.51 c 0.015,0.24 -0.044,0.47 -0.178,0.69 a 0.982,0.982 0 0 1 -0.517,0.44 0.866,0.866 0 0 1 -0.723,-0.064 C 52.856,76.292 52.668,76.052 52.55,75.71 52.44,75.39 52.437,75.09 52.544,74.82 a 0.91,0.91 0 0 1 0.58,-0.552 c 0.255,-0.09 0.486,-0.077 0.694,0.038 0.208,0.113 0.354,0.29 0.437,0.53 l -1.463,0.506 c 0.102,0.296 0.26,0.517 0.474,0.663 0.214,0.146 0.426,0.182 0.638,0.11 a 0.745,0.745 0 0 0 0.38,-0.316 0.905,0.905 0 0 0 0.16,-0.44 l 0.088,0.004 z m -2.64,-0.93 -0.116,0.026 c -0.118,-0.23 -0.196,-0.363 -0.235,-0.4 -0.113,-0.11 -0.28,-0.137 -0.5,-0.086 l -0.448,0.104 0.6,2.596 c 0.05,0.218 0.233,0.29 0.55,0.216 l 0.023,0.092 -1.45,0.336 -0.02,-0.093 c 0.316,-0.074 0.45,-0.22 0.4,-0.436 l -0.6,-2.6 -0.39,0.092 c -0.25,0.058 -0.407,0.16 -0.466,0.302 -0.028,0.064 -0.04,0.22 -0.036,0.47 l -0.117,0.026 -0.162,-0.833 2.748,-0.633 0.22,0.82 z m -4.388,2.853 -0.093,-1.065 a 0.564,0.564 0 0 0 -0.176,-0.39 0.462,0.462 0 0 0 -0.363,-0.12 c -0.208,0.018 -0.362,0.13 -0.46,0.337 a 1.205,1.205 0 0 0 -0.095,0.638 c 0.026,0.292 0.103,0.53 0.233,0.71 0.133,0.192 0.297,0.28 0.492,0.262 0.13,-0.01 0.228,-0.04 0.296,-0.095 a 0.588,0.588 0 0 0 0.168,-0.276 m 0.78,0.218 c -0.24,0.09 -0.48,0.208 -0.73,0.35 l -0.03,-0.358 A 0.812,0.812 0 0 1 46.86,77.916 0.766,0.766 0 0 1 46.287,77.72 c -0.223,-0.188 -0.35,-0.468 -0.384,-0.842 -0.028,-0.33 0.05,-0.624 0.233,-0.884 0.185,-0.262 0.424,-0.406 0.72,-0.432 0.22,-0.02 0.393,0.036 0.515,0.165 l -0.07,-0.8 c -0.01,-0.112 -0.04,-0.176 -0.092,-0.19 a 1.337,1.337 0 0 0 -0.25,0.01 l -0.01,-0.1 c 0.152,-0.046 0.393,-0.14 0.73,-0.285 l 0.25,2.886 c 0.01,0.102 0.04,0.163 0.092,0.18 0.03,0.015 0.12,0.017 0.26,0.003 l 0.007,0.074 z m -2.72,0.402 -1.054,0.038 -0.002,-0.07 c 0.21,-0.008 0.31,-0.12 0.304,-0.33 L 44.77,76.288 c -0.004,-0.124 -0.043,-0.215 -0.118,-0.276 a 0.387,0.387 0 0 0 -0.27,-0.084 c -0.182,0.005 -0.36,0.107 -0.538,0.308 l 0.047,1.342 c 0.006,0.212 0.115,0.314 0.325,0.306 v 0.07 l -1.05,0.038 -0.003,-0.07 c 0.21,-0.007 0.31,-0.117 0.303,-0.332 l -0.047,-1.35 c -0.004,-0.107 -0.028,-0.174 -0.073,-0.203 -0.043,-0.028 -0.127,-0.036 -0.25,-0.025 l -0.002,-0.07 0.73,-0.26 0.014,0.41 c 0.22,-0.283 0.473,-0.428 0.76,-0.438 0.38,-0.012 0.58,0.234 0.6,0.74 l 0.038,1.136 c 0.008,0.213 0.117,0.315 0.326,0.31 l 0.003,0.068 z m -3.465,-0.435 0.075,-0.868 a 2.98,2.98 0 0 0 -0.552,0.18 c -0.18,0.1 -0.276,0.235 -0.29,0.407 -0.025,0.275 0.084,0.424 0.325,0.444 0.126,0.012 0.273,-0.044 0.44,-0.163 m 0.78,0.307 -0.213,0.15 A 0.38,0.38 0 0 1 42.426,78 c -0.203,-0.018 -0.31,-0.154 -0.317,-0.41 -0.118,0.09 -0.25,0.168 -0.395,0.233 a 0.796,0.796 0 0 1 -0.344,0.086 0.55,0.55 0 0 1 -0.365,-0.18 0.473,0.473 0 0 1 -0.13,-0.366 c 0.027,-0.292 0.21,-0.506 0.553,-0.643 0.232,-0.093 0.485,-0.172 0.758,-0.238 l 0.016,-0.186 c 0.032,-0.36 -0.062,-0.553 -0.28,-0.57 -0.25,-0.022 -0.38,0.037 -0.392,0.175 a 0.553,0.553 0 0 0 0,0.09 0.583,0.583 0 0 1 -0.003,0.11 0.238,0.238 0 0 1 -0.078,0.16 0.212,0.212 0 0 1 -0.167,0.06 0.23,0.23 0 0 1 -0.154,-0.068 0.186,0.186 0 0 1 -0.05,-0.14 c 0.017,-0.18 0.12,-0.315 0.312,-0.41 0.164,-0.08 0.343,-0.11 0.54,-0.093 0.265,0.022 0.45,0.092 0.552,0.207 0.112,0.127 0.156,0.334 0.132,0.618 l -0.096,1.095 c -0.012,0.13 0.022,0.195 0.103,0.205 0.06,0.004 0.14,-0.023 0.247,-0.085 l 0.01,0.127 z m -3.875,-1.708 c 0.04,-0.382 -0.08,-0.6 -0.36,-0.655 -0.317,-0.062 -0.536,0.09 -0.66,0.457 l 1.02,0.197 z m 0.445,0.848 c -0.105,0.215 -0.27,0.383 -0.497,0.507 a 0.98,0.98 0 0 1 -0.666,0.122 0.865,0.865 0 0 1 -0.595,-0.416 c -0.156,-0.246 -0.2,-0.547 -0.13,-0.904 0.064,-0.333 0.21,-0.59 0.44,-0.775 a 0.915,0.915 0 0 1 0.78,-0.186 c 0.263,0.052 0.457,0.18 0.58,0.38 0.124,0.202 0.16,0.43 0.113,0.68 l -1.52,-0.296 c -0.06,0.306 -0.032,0.578 0.08,0.81 0.112,0.235 0.277,0.372 0.496,0.416 0.156,0.03 0.32,0.004 0.488,-0.084 a 0.89,0.89 0 0 0 0.36,-0.3 l 0.07,0.048 z m -2.454,-0.432 c -0.182,0.214 -0.344,0.364 -0.487,0.448 -0.2,0.12 -0.41,0.155 -0.638,0.102 a 0.852,0.852 0 0 1 -0.58,-0.442 c -0.14,-0.25 -0.172,-0.544 -0.094,-0.88 0.077,-0.338 0.24,-0.594 0.49,-0.768 0.248,-0.177 0.54,-0.224 0.874,-0.148 a 0.88,0.88 0 0 1 0.47,0.263 c 0.117,0.13 0.163,0.258 0.134,0.38 a 0.21,0.21 0 0 1 -0.098,0.137 0.22,0.22 0 0 1 -0.17,0.027 0.21,0.21 0 0 1 -0.142,-0.105 0.215,0.215 0 0 1 -0.027,-0.16 0.332,0.332 0 0 0 -0.042,-0.263 0.35,0.35 0 0 0 -0.226,-0.154 0.586,0.586 0 0 0 -0.604,0.196 c -0.12,0.133 -0.204,0.3 -0.25,0.498 -0.058,0.256 -0.038,0.495 0.06,0.716 0.1,0.22 0.253,0.355 0.46,0.404 0.267,0.06 0.536,-0.042 0.81,-0.307 l 0.058,0.056 z m -2.452,0.205 -0.997,-0.34 0.024,-0.066 c 0.197,0.068 0.33,0.002 0.4,-0.2 l 0.41,-1.19 c 0.04,-0.117 0.036,-0.216 -0.01,-0.3 a 0.385,0.385 0 0 0 -0.223,-0.175 c -0.173,-0.062 -0.377,-0.03 -0.612,0.093 l -0.44,1.27 c -0.068,0.2 -0.003,0.336 0.195,0.404 l -0.022,0.066 -0.996,-0.343 0.022,-0.066 c 0.2,0.068 0.332,0.002 0.402,-0.2 l 0.44,-1.278 c 0.035,-0.1 0.037,-0.173 0.005,-0.216 -0.03,-0.04 -0.105,-0.08 -0.223,-0.114 l 0.022,-0.066 0.774,0.018 -0.133,0.388 c 0.307,-0.183 0.595,-0.227 0.866,-0.135 0.362,0.126 0.46,0.428 0.296,0.905 l -0.37,1.076 c -0.07,0.203 -0.006,0.338 0.193,0.406 l -0.023,0.065 z m -2.664,-2.606 c 0.112,-0.368 0.036,-0.605 -0.23,-0.713 -0.298,-0.12 -0.542,-0.012 -0.732,0.324 l 0.962,0.39 z m 0.274,0.916 c -0.144,0.19 -0.34,0.324 -0.584,0.403 a 0.964,0.964 0 0 1 -0.68,-0.008 0.86,0.86 0 0 1 -0.503,-0.52 c -0.106,-0.274 -0.09,-0.577 0.045,-0.915 0.128,-0.314 0.32,-0.54 0.58,-0.674 a 0.916,0.916 0 0 1 0.8,-0.038 c 0.25,0.102 0.417,0.263 0.5,0.485 a 0.923,0.923 0 0 1 -0.02,0.688 l -1.435,-0.58 c -0.117,0.293 -0.143,0.562 -0.077,0.814 0.066,0.25 0.202,0.417 0.408,0.5 0.148,0.06 0.314,0.065 0.496,0.013 a 0.89,0.89 0 0 0 0.41,-0.23 l 0.06,0.063 z m -2.535,-0.195 -1.044,-0.555 0.032,-0.062 c 0.223,0.12 0.385,0.083 0.485,-0.104 l 0.627,-1.18 c 0.082,-0.154 0.066,-0.26 -0.045,-0.32 a 0.58,0.58 0 0 0 -0.185,-0.052 l 0.034,-0.067 0.838,0.14 -0.893,1.68 c -0.1,0.188 -0.04,0.34 0.185,0.458 l -0.033,0.062 z m 1.14,-2.954 a 0.228,0.228 0 0 1 -0.15,0.125 0.263,0.263 0 0 1 -0.195,-0.025 0.247,0.247 0 0 1 -0.126,-0.145 0.246,0.246 0 0 1 0.022,-0.192 0.255,0.255 0 0 1 0.15,-0.13 0.233,0.233 0 0 1 0.193,0.016 0.264,0.264 0 0 1 0.13,0.152 c 0.02,0.07 0.012,0.135 -0.023,0.2 M 28.46,73.39 c -0.237,0.15 -0.435,0.244 -0.596,0.284 a 0.824,0.824 0 0 1 -0.64,-0.09 0.852,0.852 0 0 1 -0.426,-0.59 c -0.06,-0.28 -0.004,-0.57 0.168,-0.87 0.173,-0.3 0.405,-0.498 0.693,-0.59 0.288,-0.095 0.58,-0.057 0.878,0.113 0.172,0.1 0.297,0.23 0.372,0.39 0.076,0.158 0.082,0.293 0.02,0.402 a 0.204,0.204 0 0 1 -0.135,0.1 0.215,0.215 0 0 1 -0.17,-0.023 0.214,0.214 0 0 1 -0.106,-0.143 0.226,0.226 0 0 1 0.02,-0.16 0.328,0.328 0 0 0 0.037,-0.264 0.35,0.35 0 0 0 -0.172,-0.212 0.583,0.583 0 0 0 -0.634,0.01 1.11,1.11 0 0 0 -0.383,0.405 1.1,1.1 0 0 0 -0.152,0.703 c 0.03,0.24 0.138,0.413 0.323,0.52 0.237,0.135 0.523,0.12 0.86,-0.056 l 0.042,0.07 z m -2.116,-1.423 c -0.183,0.254 -0.415,0.387 -0.696,0.4 -0.248,0.013 -0.492,-0.066 -0.732,-0.24 -0.1,-0.073 -0.202,-0.18 -0.307,-0.324 a 1.476,1.476 0 0 0 -0.22,-0.262 c -0.066,-0.05 -0.14,-0.033 -0.217,0.047 l -0.09,-0.065 0.51,-0.957 0.09,0.065 c -0.177,0.6 -0.07,1.04 0.316,1.322 a 0.62,0.62 0 0 0 0.398,0.123 0.495,0.495 0 0 0 0.404,-0.218 c 0.165,-0.225 0.167,-0.52 0.007,-0.883 l -0.224,-0.507 c -0.186,-0.423 -0.183,-0.77 0.01,-1.035 0.154,-0.21 0.342,-0.33 0.57,-0.362 a 0.89,0.89 0 0 1 0.658,0.186 c 0.12,0.087 0.22,0.195 0.302,0.322 0.08,0.126 0.143,0.205 0.186,0.237 0.06,0.042 0.134,0.028 0.226,-0.04 l 0.084,0.06 -0.535,0.925 -0.097,-0.07 c 0.185,-0.572 0.1,-0.986 -0.255,-1.246 a 0.515,0.515 0 0 0 -0.36,-0.104 0.433,0.433 0 0 0 -0.325,0.2 c -0.076,0.104 -0.1,0.24 -0.072,0.404 0.02,0.096 0.073,0.25 0.16,0.466 l 0.215,0.527 c 0.18,0.435 0.177,0.78 -0.01,1.03 m -1.298,-3.65 a 0.21,0.21 0 0 1 -0.136,0.07 0.17,0.17 0 0 1 -0.146,-0.035 C 24.687,68.29 24.658,68.218 24.673,68.139 l 0.042,-0.235 a 0.21,0.21 0 0 0 -0.083,-0.157 c -0.143,-0.125 -0.3,-0.087 -0.473,0.11 l -0.416,0.48 0.455,0.396 -0.104,0.12 -0.456,-0.396 -1.107,1.274 c -0.14,0.16 -0.092,0.342 0.144,0.547 l -0.044,0.053 -0.984,-0.854 0.047,-0.054 c 0.203,0.18 0.377,0.19 0.517,0.03 l 1.106,-1.274 -0.31,-0.27 0.106,-0.12 0.308,0.268 0.1,-0.115 c 0.21,-0.242 0.44,-0.376 0.684,-0.405 a 0.813,0.813 0 0 1 0.645,0.217 c 0.116,0.1 0.19,0.212 0.22,0.332 0.025,0.103 0.014,0.18 -0.032,0.234 m -3.47,-0.16 c 0.23,-0.24 0.384,-0.473 0.457,-0.696 0.092,-0.28 0.046,-0.507 -0.138,-0.684 a 0.466,0.466 0 0 0 -0.465,-0.116 c -0.167,0.044 -0.332,0.15 -0.497,0.32 a 1.91,1.91 0 0 0 -0.454,0.707 c -0.094,0.277 -0.058,0.497 0.107,0.656 0.145,0.143 0.323,0.18 0.53,0.112 0.163,-0.052 0.315,-0.153 0.458,-0.3 m 0.47,0.175 a 1.25,1.25 0 0 1 -0.84,0.366 1.03,1.03 0 0 1 -0.8,-0.322 0.99,0.99 0 0 1 -0.297,-0.767 c 0.01,-0.3 0.13,-0.57 0.357,-0.802 0.233,-0.243 0.492,-0.376 0.776,-0.396 0.3,-0.024 0.576,0.083 0.822,0.32 0.244,0.237 0.364,0.505 0.36,0.8 -0.002,0.3 -0.128,0.564 -0.378,0.8 M 20.4,65.206 c -0.03,-0.04 -0.094,-0.057 -0.192,-0.053 a 1.032,1.032 0 0 0 -0.22,0.034 l -2.217,0.68 c -0.524,0.16 -0.883,0.12 -1.075,-0.126 -0.15,-0.192 -0.142,-0.353 0.023,-0.482 0.047,-0.038 0.104,-0.043 0.17,-0.02 0.054,0.022 0.1,0.056 0.136,0.103 a 0.71,0.71 0 0 1 0.08,0.204 c 0.017,0.05 0.04,0.095 0.067,0.133 0.1,0.125 0.395,0.09 0.886,-0.108 l 0.877,-1.726 c 0.062,-0.12 0.095,-0.2 0.1,-0.237 0.01,-0.058 -0.008,-0.13 -0.05,-0.215 l 0.057,-0.044 0.632,0.81 -0.054,0.045 c -0.12,-0.156 -0.218,-0.205 -0.288,-0.15 a 0.437,0.437 0 0 0 -0.102,0.13 l -0.66,1.267 1.26,-0.425 a 0.82,0.82 0 0 0 0.207,-0.086 c 0.024,-0.02 0.034,-0.053 0.028,-0.1 a 0.313,0.313 0 0 0 -0.077,-0.165 l 0.056,-0.044 0.414,0.532 -0.055,0.043 z m -3.03,-0.942 a 1.534,1.534 0 0 1 -0.402,-0.077 0.645,0.645 0 0 1 -0.292,-0.233 c -0.148,-0.21 -0.075,-0.417 0.217,-0.622 l 1.304,-0.912 -0.152,-0.216 c -0.008,-0.012 -0.003,-0.024 0.014,-0.042 0.018,-0.013 0.034,-0.016 0.044,-0.013 0.168,0.078 0.47,0.125 0.904,0.142 l 0.106,0.003 -0.543,0.38 0.284,0.406 -0.13,0.09 -0.285,-0.406 -1.19,0.835 c -0.226,0.158 -0.297,0.296 -0.214,0.415 0.057,0.08 0.17,0.135 0.34,0.165 l -0.007,0.083 z m -1.28,-1.246 -0.627,-1.002 0.06,-0.038 c 0.133,0.215 0.29,0.265 0.47,0.153 l 1.135,-0.71 c 0.147,-0.09 0.187,-0.19 0.12,-0.298 a 0.627,0.627 0 0 0 -0.135,-0.14 l 0.063,-0.038 0.655,0.538 -1.61,1.008 c -0.182,0.11 -0.206,0.274 -0.07,0.49 l -0.06,0.037 z m 2.466,-1.988 a 0.238,0.238 0 0 1 -0.194,0.03 0.262,0.262 0 0 1 -0.156,-0.118 0.247,0.247 0 0 1 -0.037,-0.19 0.25,0.25 0 0 1 0.115,-0.155 c 0.062,-0.038 0.127,-0.05 0.194,-0.038 0.066,0.012 0.118,0.05 0.157,0.11 a 0.256,0.256 0 0 1 -0.08,0.36 m -2.88,0.223 c -0.18,0.1 -0.36,0.112 -0.54,0.036 a 0.81,0.81 0 0 1 -0.385,-0.37 1.03,1.03 0 0 1 -0.094,-0.28 1.033,1.033 0 0 0 -0.084,-0.265 c -0.036,-0.064 -0.073,-0.085 -0.114,-0.062 l -0.034,-0.06 0.677,-0.376 0.04,0.074 c -0.362,0.308 -0.464,0.606 -0.306,0.89 a 0.47,0.47 0 0 0 0.213,0.208 c 0.1,0.047 0.198,0.044 0.296,-0.01 0.14,-0.077 0.212,-0.263 0.217,-0.554 l 0.01,-0.4 c 0.006,-0.315 0.116,-0.532 0.328,-0.65 a 0.584,0.584 0 0 1 0.463,-0.042 c 0.17,0.05 0.3,0.163 0.4,0.34 0.048,0.088 0.08,0.183 0.095,0.285 0.014,0.103 0.03,0.17 0.048,0.2 0.02,0.035 0.052,0.05 0.096,0.04 l 0.03,0.056 -0.592,0.33 -0.04,-0.07 c 0.308,-0.285 0.397,-0.542 0.267,-0.775 a 0.43,0.43 0 0 0 -0.207,-0.19 0.28,0.28 0 0 0 -0.26,0.015 c -0.126,0.068 -0.193,0.25 -0.204,0.54 l -0.013,0.407 c -0.012,0.35 -0.114,0.576 -0.306,0.683 m 0.37,-2.28 c -0.146,0.064 -0.246,0.036 -0.3,-0.085 a 0.258,0.258 0 0 1 0.003,-0.21 c 0.03,-0.074 0.036,-0.13 0.018,-0.17 -0.022,-0.052 -0.09,-0.095 -0.206,-0.127 a 0.44,0.44 0 0 0 -0.305,0.01 l -1.07,0.478 c -0.196,0.086 -0.24,0.244 -0.14,0.475 l -0.062,0.028 -0.48,-1.075 0.064,-0.03 c 0.1,0.23 0.25,0.3 0.445,0.214 l 1.17,-0.522 c 0.177,-0.078 0.245,-0.18 0.204,-0.303 a 0.484,0.484 0 0 0 -0.11,-0.148 l 0.067,-0.03 0.577,0.617 -0.416,0.184 c 0.358,0.06 0.577,0.178 0.655,0.354 a 0.27,0.27 0 0 1 0.012,0.2 0.22,0.22 0 0 1 -0.128,0.14 M 14.55,56.88 c 0.346,-0.17 0.47,-0.387 0.366,-0.654 -0.117,-0.3 -0.36,-0.405 -0.737,-0.316 l 0.37,0.97 z m -0.483,0.827 a 1.148,1.148 0 0 1 -0.693,-0.155 0.97,0.97 0 0 1 -0.456,-0.5 0.866,0.866 0 0 1 0.037,-0.726 c 0.126,-0.26 0.36,-0.458 0.7,-0.59 0.316,-0.12 0.612,-0.132 0.887,-0.035 a 0.912,0.912 0 0 1 0.574,0.562 c 0.097,0.252 0.092,0.483 -0.013,0.695 a 0.934,0.934 0 0 1 -0.518,0.455 L 14.03,55.969 c -0.292,0.113 -0.507,0.276 -0.645,0.497 -0.14,0.218 -0.17,0.43 -0.09,0.64 a 0.755,0.755 0 0 0 0.33,0.37 0.89,0.89 0 0 0 0.446,0.145 l -0.003,0.087 z m 0.41,-2.624 c -0.027,-0.104 -0.153,-0.17 -0.378,-0.2 l -1.925,-0.237 c -0.07,-0.01 -0.11,-0.023 -0.12,-0.046 -0.01,-0.02 0.016,-0.056 0.08,-0.108 l 1.54,-1.214 c 0.175,-0.14 0.245,-0.275 0.21,-0.404 l 0.068,-0.017 0.255,0.946 -0.07,0.016 C 14.1,53.675 14.035,53.615 13.945,53.639 a 0.5,0.5 0 0 0 -0.16,0.08 l -1.08,0.82 1.25,0.125 c 0.107,0.01 0.19,0.007 0.254,-0.006 0.097,-0.024 0.126,-0.105 0.088,-0.247 l 0.068,-0.02 0.18,0.672 -0.068,0.018 z m -2.817,-2.03 -0.245,-1.156 0.068,-0.014 c 0.053,0.246 0.183,0.35 0.39,0.304 l 1.31,-0.277 c 0.168,-0.038 0.24,-0.117 0.215,-0.24 a 0.608,0.608 0 0 0 -0.08,-0.177 l 0.074,-0.018 0.43,0.732 -1.86,0.395 c -0.21,0.044 -0.286,0.19 -0.234,0.437 z m 2.998,-1.024 a 0.236,0.236 0 0 1 -0.192,-0.036 0.265,0.265 0 0 1 -0.107,-0.167 0.24,0.24 0 0 1 0.19,-0.296 0.252,0.252 0 0 1 0.196,0.03 0.24,0.24 0 0 1 0.112,0.16 0.262,0.262 0 0 1 -0.036,0.198 0.254,0.254 0 0 1 -0.164,0.11 m -3.39,-0.523 -0.184,-1.04 0.07,-0.01 c 0.036,0.207 0.16,0.29 0.368,0.253 l 1.24,-0.217 c 0.12,-0.022 0.206,-0.073 0.256,-0.154 a 0.39,0.39 0 0 0 0.047,-0.28 c -0.032,-0.18 -0.16,-0.344 -0.38,-0.49 L 11.361,49.8 c -0.21,0.037 -0.297,0.158 -0.26,0.365 l -0.07,0.012 -0.182,-1.038 0.07,-0.013 c 0.036,0.206 0.16,0.29 0.37,0.255 l 1.33,-0.235 c 0.105,-0.018 0.168,-0.053 0.19,-0.1 0.023,-0.047 0.02,-0.13 -0.008,-0.252 l 0.07,-0.012 0.358,0.686 -0.403,0.07 c 0.31,0.18 0.487,0.41 0.538,0.69 0.066,0.378 -0.15,0.61 -0.648,0.698 l -1.12,0.2 c -0.21,0.035 -0.297,0.156 -0.26,0.363 l -0.07,0.015 z m 2.762,-2.966 c -0.02,-0.313 -0.138,-0.46 -0.346,-0.448 L 11.9,48.216 c -0.424,0.03 -0.747,-0.093 -0.97,-0.368 -0.172,-0.215 -0.27,-0.495 -0.293,-0.84 -0.027,-0.362 0.038,-0.654 0.193,-0.875 0.188,-0.266 0.5,-0.415 0.94,-0.445 l 1.737,-0.12 c 0.21,-0.017 0.303,-0.17 0.282,-0.462 l 0.095,-0.006 0.097,1.383 -0.095,0.008 c -0.02,-0.292 -0.13,-0.433 -0.33,-0.417 l -1.803,0.125 c -0.294,0.02 -0.512,0.094 -0.655,0.217 -0.176,0.15 -0.253,0.387 -0.23,0.71 0.043,0.626 0.386,0.915 1.026,0.87 l 1.758,-0.123 c 0.218,-0.015 0.317,-0.178 0.296,-0.49 l 0.094,-0.006 0.08,1.153 -0.094,0.01 z m 57.173,8.777 a 0.218,0.218 0 0 1 0.1,0.116 c 0.023,0.055 0.023,0.105 0,0.15 -0.043,0.085 -0.105,0.13 -0.187,0.136 l -0.237,0.015 a 0.214,0.214 0 0 0 -0.134,0.117 c -0.087,0.17 -0.012,0.314 0.222,0.434 l 0.564,0.286 0.275,-0.54 0.143,0.075 -0.275,0.538 1.503,0.766 c 0.19,0.098 0.356,0.007 0.497,-0.272 l 0.062,0.032 -0.59,1.16 -0.062,-0.032 c 0.123,-0.243 0.09,-0.414 -0.1,-0.51 l -1.503,-0.765 -0.185,0.366 -0.143,-0.075 0.186,-0.364 -0.137,-0.07 c -0.286,-0.145 -0.47,-0.333 -0.56,-0.564 a 0.813,0.813 0 0 1 0.055,-0.678 0.678,0.678 0 0 1 0.268,-0.296 c 0.096,-0.047 0.175,-0.055 0.237,-0.025"
       inkscape:connector-curvature="0" />
    <path
       style="fill:#004daa;fill-opacity:1"
       id="path54"
       d="m 56.31,53.13 c 5.33,-12.255 0.545,-19.99 -9.845,-24.094 6.227,2.518 4.91,10.233 2.427,14.14 -2.48,3.908 -6.708,7.072 -13.374,10.073 7.14,-2.792 11.6,-6.475 13.68,-9.92 2.08,-3.447 2.46,-6.44 1.895,-9.803 3.228,6.89 0.506,12.956 -5.828,18.977 7.343,-6.322 9.724,-13.13 5.572,-20.176 6.175,6.774 4.507,14.023 0.252,20.48 5.234,-7.255 6.138,-14.928 -0.805,-21.522 8.348,5.11 9.534,12.095 6.025,21.844 M 44.615,29.663 c -1.48,-1.532 -2.72,-2.466 -4.64,-3.44 2.736,0.036 6.012,0.686 8.128,1.278 -2.217,-0.256 -3.21,-0.03 -3.708,0.31 -0.495,0.343 -0.31,0.902 0.22,1.853"
       inkscape:connector-curvature="0" />
    <path
       style="fill:#004daa;fill-opacity:1"
       id="path56"
       d="m 44.878,57.374 c 0.042,-1.014 0.142,-1.68 1.59,-2.03 1.445,-0.346 3.038,-0.302 5.696,0.126 2.658,0.43 4.79,0.618 7.415,0.37 -0.89,-0.58 -1.16,-0.857 -1.513,-1.524 -2.295,0.047 -3.815,-0.112 -5.728,-0.697 -1.915,-0.585 -4.168,-1.19 -5.634,-1.034 -1.467,0.154 -2.427,0.97 -2.938,2.76 -0.512,-1.79 -1.473,-2.606 -2.94,-2.76 -1.465,-0.155 -3.72,0.45 -5.632,1.033 -1.912,0.584 -3.433,0.743 -5.728,0.696 -0.353,0.667 -0.622,0.943 -1.513,1.523 2.625,0.248 4.758,0.06 7.416,-0.37 2.66,-0.428 4.252,-0.472 5.698,-0.125 1.445,0.35 1.546,1.015 1.59,2.03 h 2.22 z"
       inkscape:connector-curvature="0" />
    <path
       style="fill:#004daa;fill-opacity:1"
       id="path58"
       d="m 43.768,25.063 c 11.008,0 19.936,8.927 19.936,19.937 0,11.008 -8.928,19.936 -19.936,19.936 -11.01,0 -19.937,-8.928 -19.937,-19.936 0,-11.01 8.928,-19.937 19.938,-19.937 m 0,-0.687 c 11.387,0 20.621,9.234 20.621,20.624 0,11.387 -9.234,20.624 -20.622,20.624 -11.39,0 -20.625,-9.237 -20.625,-20.624 0,-11.39 9.236,-20.624 20.625,-20.624"
       inkscape:connector-curvature="0" />
    <path
       style="fill:#004daa;fill-opacity:1;fill-rule:nonzero"
       id="path60"
       d="m 70.31,21.803 c 0.128,0.17 0.283,0.347 0.296,0.5 0.03,0.355 -0.878,1.034 -1.358,1.388 -0.16,0.12 -0.492,0.184 -0.545,0.368 0.262,0.2 0.53,0.5 0.847,0.604 l 0.13,-0.058 c 0.065,-0.136 0.055,-0.27 0.122,-0.395 l 0.17,-0.128 c 0.023,0.028 0.044,0.057 0.065,0.086 -0.093,0.382 0.145,0.792 0.418,1.15 0.067,0.087 0.036,0.172 0.12,0.29 -0.042,0.057 -0.04,0.038 -0.015,0.106 -0.08,0.06 -0.163,0.12 -0.244,0.182 -0.088,-0.026 -0.197,0.015 -0.28,-0.02 l -0.41,-0.398 c -0.66,-0.348 -1.32,-0.882 -2.018,-1.005 -0.58,0.417 -1.823,0.75 -2.347,0.568 -0.413,-0.143 -0.915,-0.94 -0.478,-1.256 0.005,-0.003 0.01,-0.006 0.013,-0.01 0.128,0.047 0.28,0.046 0.41,0.094 l 0.505,0.422 c 0.247,0.137 1.07,0.004 1.346,-0.127 l 0.046,-0.09 c -0.344,-0.754 -0.926,-0.643 -0.642,-1.554 0.02,-0.066 0.06,-0.338 0.245,-0.335 0.048,0.007 0.074,0.043 0.115,0.104 0.076,0.233 0.19,0.556 0.387,0.698 l 0.212,0.26 c 0.16,0.11 0.456,0.37 0.64,0.378 0.243,0.008 1.563,-0.998 1.7,-1.263 0.078,-0.155 0.082,-0.5 0.346,-0.58 l 0.204,0.02 m -2.98,3.902 c 0.43,0.633 0.168,1.972 -0.438,2.373 -0.15,-0.093 -0.814,-0.022 -0.89,-0.382 -0.067,-0.43 0.315,-0.636 0.48,-1.04 0.155,-0.38 0.083,-0.83 0.203,-1.154 0.005,0.007 0.01,0.016 0.017,0.023 0.245,-0.08 0.405,0.063 0.627,0.18 m 9.741,3.809 0.09,0.158 c -0.326,0.364 -1.302,1.395 -1.93,1.256 -0.4,-0.387 0.14,-1.01 0.606,-1.264 0.273,0.18 0.85,-0.132 1.233,-0.15 m -0.576,1.563 c 0.243,0.458 -0.173,0.88 0.125,1.282 0.08,0.016 0.055,0.07 0.13,0.135 0.268,0.234 0.992,0.49 0.996,1.025 0.002,0.295 -0.535,0.792 -0.883,0.633 -0.08,-0.058 -0.59,-0.665 -0.597,-0.728 -0.372,-0.277 -0.796,-0.46 -1.18,-0.673 -0.005,0.01 -0.012,0.018 -0.018,0.027 0.005,0.01 0.01,0.02 0.016,0.027 0.055,0.178 0.31,0.413 0.333,0.67 0.056,0.672 0.16,1.392 -0.57,1.786 -0.084,-0.053 -0.217,-0.074 -0.306,-0.138 -0.19,-0.135 -0.51,-0.635 -0.708,-0.558 -0.264,0.542 -1.17,0.17 -1.633,0.186 -0.078,0.09 -0.13,0.17 -0.12,0.28 0.075,0.133 0.152,0.265 0.228,0.397 0.152,0.117 0.835,0.625 0.87,0.957 0.04,0.385 -0.445,0.598 -0.764,0.475 -0.21,-0.39 -0.294,-0.778 -0.753,-1.06 -0.145,-0.09 -0.13,-0.207 -0.28,-0.243 -0.272,0.156 -0.434,0.32 -0.76,0.51 -0.89,-0.417 -1.603,-1.064 -1.324,-2.172 0.056,-0.22 0.12,-0.496 0.335,-0.668 0.16,0.296 0.05,0.66 0.08,0.957 l 0.168,0.324 c 0.35,0.604 0.773,0.72 1.25,0.825 0.03,-0.022 0.057,-0.043 0.085,-0.067 0.016,-0.043 0.03,-0.087 0.047,-0.13 l -0.228,-0.397 a 3.7,3.7 0 0 0 -0.446,-0.377 c -0.262,-0.18 -0.803,-1.25 -0.71,-1.505 0.033,-0.097 0.133,-0.156 0.232,-0.206 0.065,0.02 0.13,0.043 0.195,0.064 0.32,0.217 0.364,0.81 0.676,1.14 0.183,0.195 0.592,0.37 0.708,0.68 0.057,0.02 0.107,0.03 0.166,0.045 0.335,-0.358 0.548,-0.3 0.938,-0.294 0.076,0 0.327,-0.04 0.335,-0.09 0.047,-0.202 -0.38,-0.402 -0.494,-0.52 -0.05,-0.09 -0.102,-0.178 -0.153,-0.265 0.562,-0.385 0.78,0.168 1.187,0.564 0.168,0.165 0.427,0.263 0.615,0.365 0.173,0.094 0.507,0.286 0.668,0 0.07,-0.124 -0.008,-0.242 -0.016,-0.395 -0.047,-0.807 -1.063,-1.343 -1.635,-1.552 -0.217,-0.08 -0.65,-0.315 -0.898,0.06 0,0.08 -0.102,0.34 -0.102,0.34 -0.23,0.238 -0.49,0.193 -0.688,0.24 -0.073,-0.087 -0.11,-0.078 -0.182,-0.194 a 0.94,0.94 0 0 0 0.05,-0.31 c -0.112,-0.05 -0.18,-0.105 -0.242,-0.266 0.045,-0.193 0.883,-1.21 1.094,-1.212 0.465,0.308 0.896,0.385 1.37,0.58 l 0.517,0.406 c 0.377,0.165 0.808,0.22 1.205,0.323 0.49,0.125 0.842,0.563 1.332,0.603 0.01,-0.016 0.017,-0.033 0.025,-0.05 l -0.008,-0.013 c -0.327,-0.11 -1.08,-0.48 -0.98,-1 0.053,-0.28 0.462,-0.42 0.39,-0.752 l 0.206,-0.1 a 0.23,0.23 0 0 0 0.104,0.027 M 62.878,15.34 c 0.395,0.303 0.808,0.515 1.034,0.948 0.028,0.053 0.178,0.444 0.15,0.438 -0.163,0.694 -0.882,0.612 -1.218,0.193 0.064,-0.14 0.087,-0.26 0.014,-0.362 L 62.716,16.44 c 0.2,-0.392 -0.164,-0.813 0.162,-1.1 m -1.138,-0.588 0.19,0.127 c -0.03,0.306 -0.262,1.19 -0.49,1.457 -0.148,0.173 -0.65,0.58 -0.668,0.793 l 0.003,0.054 c 0.327,0.194 0.702,0.193 0.92,-0.013 0.126,-0.115 0.028,-0.238 0.143,-0.304 0.16,0.13 0.8,0.62 0.815,0.752 0.008,0.104 -0.11,0.22 -0.154,0.264 -0.646,-0.31 -1.178,-0.146 -1.79,-0.067 -0.197,0.026 -0.31,-0.187 -0.487,-0.07 -0.262,0.17 -0.654,0.934 -0.804,1.117 0.013,0.027 0.028,0.053 0.042,0.078 0.444,0.177 0.858,-0.42 1.233,0.484 0.113,0.27 -0.167,0.463 -0.273,0.808 -0.078,0.25 0.094,0.613 0.033,0.917 -0.13,0.646 -1.07,0.423 -1.344,0.013 -0.188,-0.364 0.34,-1.118 0.11,-1.59 -0.045,-0.013 -0.09,-0.028 -0.134,-0.04 -0.65,0.393 -0.708,1.336 -1.168,1.84 l -0.034,-0.004 c -0.383,-0.323 -0.227,-0.93 -0.003,-1.426 0.105,-0.23 0.343,-0.245 0.358,-0.498 -0.152,-0.147 -0.487,-0.286 -0.69,-0.238 -0.184,0.043 -0.295,0.268 -0.465,0.38 -0.31,0.21 -0.776,0.45 -1.14,0.485 a 1.05,1.05 0 0 1 -0.307,-0.352 c 0.155,-0.296 0.097,-0.365 0.052,-0.637 0.232,-0.232 0.54,-0.522 0.67,-0.915 0.75,-0.1 1.458,-0.557 2.234,-0.52 0.278,0.01 0.457,0.514 0.765,0.318 l 0.084,-0.146 c -0.01,-0.07 -0.023,-0.142 -0.035,-0.213 -0.16,-0.06 -0.28,0.02 -0.428,-0.02 -0.603,-0.167 -0.583,-0.83 -0.25,-1.18 l 0.013,0.007 c 0.183,0.328 0.763,0.61 1.158,0.616 a 2.7,2.7 0 0 0 0.405,-0.4 l 0.34,-0.56 c 0.228,-0.213 0.405,-0.38 0.608,-0.563 0.08,-0.072 0.303,-0.605 0.408,-0.767 0.028,0.004 0.055,0.01 0.082,0.012 m -3.006,3.258 c -0.18,0.05 -0.82,0.437 -0.82,0.687 a 0.05,0.05 0 0 1 0.013,0.008 c 0.66,0.416 1.065,-0.067 0.886,-0.65 -0.027,-0.014 -0.053,-0.03 -0.08,-0.045 M 35.71,9.965 c 0.075,0.01 0.09,0.032 0.143,0.076 0.034,0.21 0.492,0.91 0.676,0.936 0.027,0.353 0.167,0.438 -0.098,0.71 -0.753,0.06 -0.92,-0.306 -0.954,-1.118 -0.01,-0.224 -0.12,-0.324 -0.08,-0.466 0.104,-0.046 0.208,-0.09 0.312,-0.137 m 3.478,-0.512 c 0.405,-0.076 0.872,0.088 1.153,0.18 0.007,0.068 0.053,0.166 0.01,0.232 -0.197,0.506 -1.162,0.61 -1.435,1.076 0.23,0.228 0.442,0.063 0.74,0.154 0.443,0.133 1.444,1.126 1,1.766 -0.12,0.17 -0.408,0.287 -0.557,0.43 -0.196,0.188 -0.61,-0.045 -0.687,0.334 l 0.074,0.437 c -0.097,0.298 -0.34,0.484 -0.384,0.827 0.1,0.1 0.218,0.086 0.37,0.1 0.114,-0.1 0.105,-0.162 0.132,-0.297 0.336,-0.088 1.01,-0.086 1.267,-0.003 0.117,0.038 0.24,0.326 0.296,0.46 -0.055,0.072 -0.08,0.21 -0.185,0.28 -0.384,0.28 -0.81,-0.308 -1.16,0.056 -0.24,0.252 0.31,0.792 0.216,1.17 -0.216,0.87 -1.82,0.654 -2.36,0.404 l 0.018,-0.052 c 0.59,-0.392 1.504,-0.435 1.624,-1.137 -0.027,-0.022 -0.02,-0.02 -0.055,-0.033 -0.44,-0.06 -0.79,0.352 -1.215,0.35 -0.16,0 -0.44,0.05 -0.584,-0.017 l -0.227,-0.165 0.023,-0.1 c 0.348,-0.074 1.615,-0.498 1.66,-0.66 a 1.403,1.403 0 0 1 -0.02,-0.088 c -0.128,-0.113 -0.15,-0.048 -0.273,-0.218 0.003,-0.162 -0.048,-0.29 -0.01,-0.436 0.064,-0.243 0.222,-0.496 0.17,-0.805 a 0.18,0.18 0 0 0 -0.074,-0.046 c -0.322,-0.112 -0.717,0.596 -1,0.738 a 0.22,0.22 0 0 0 -0.006,-0.03 c -0.106,-0.124 -0.07,-0.316 -0.05,-0.474 0.076,-0.604 0.69,-0.93 1.257,-0.642 0.335,-0.07 0.47,-0.27 0.647,-0.436 0.145,-0.133 0.353,-0.27 0.428,-0.445 0.236,-0.554 -0.61,-0.9 -0.957,-0.93 -0.572,-0.05 -0.937,0.64 -1.114,0.906 -0.206,0.308 -0.406,0.693 -0.647,0.967 -0.196,0.223 -0.38,0.396 -0.485,0.664 -0.157,0.4 -0.105,0.963 -0.2,1.393 -0.77,0.2 -1.092,-0.468 -1.152,-1.09 -0.002,-0.03 0.368,-0.407 0.44,-0.525 l 0.4,-0.815 c 0.19,-0.295 0.52,-0.58 0.756,-0.837 0.35,-0.38 1.12,-0.834 1.344,-1.258 l -0.004,-0.015 c -0.36,-0.058 -0.86,-0.106 -1.092,-0.383 l 0.007,-0.033 c 0.908,-0.035 1.465,-0.56 1.903,-0.95 m -0.422,0.724 c -0.012,0.02 -0.024,0.037 -0.034,0.056 0.018,0.037 0.038,0.073 0.057,0.11 0.035,-0.023 0.07,-0.047 0.107,-0.07 L 38.88,10.203 38.858,10.175 c -0.03,0.003 -0.062,0.005 -0.092,0.006 m -0.03,0.21 c -0.028,0.03 -0.06,0.056 -0.09,0.084 0.015,0.013 0.03,0.026 0.04,0.038 l 0.087,-0.036 0.015,-0.067 -0.02,-0.026 c -0.01,0.004 -0.022,0.006 -0.03,0.01 M 50.914,9.55 c 0.478,0.078 0.727,0.297 0.68,0.72 -0.017,0.138 -0.16,0.28 -0.08,0.45 0.18,0.37 0.79,0.608 1.293,0.75 L 52.8,11.685 c -0.255,0.345 -0.834,0.41 -1.19,0.627 -0.115,0.07 -0.182,0.24 -0.313,0.287 -0.372,0.126 -0.726,-0.01 -0.842,0.486 0.21,0.296 0.833,0.285 0.955,0.645 0.06,0.174 -0.002,0.89 -0.117,1.123 -0.062,0.126 -0.27,0.467 -0.222,0.658 0.09,0.234 0.44,0.285 0.634,0.45 0.28,0.24 0.49,0.46 0.542,0.882 0.048,0.393 -0.483,0.772 -0.923,0.597 -0.265,-0.106 -0.388,-0.443 -0.566,-0.655 -0.07,-0.082 -0.227,-0.135 -0.32,-0.194 -0.11,-0.068 -0.58,0.064 -0.633,0.076 -0.09,-0.01 -0.182,-0.02 -0.272,-0.032 -0.38,0.05 -0.807,0.078 -1.222,-0.087 -0.023,-0.265 -0.205,-0.59 -0.377,-0.762 l -0.06,-0.01 -0.036,0.025 c -0.038,0.238 0.135,1.138 -0.083,1.19 -0.12,0.03 -0.306,-0.162 -0.35,-0.214 -0.155,-0.192 -0.118,-0.508 -0.196,-0.73 -0.13,-0.182 -0.257,-0.363 -0.385,-0.546 -0.05,-0.145 0.047,-0.306 -0.052,-0.41 -0.123,-0.13 -1.01,0.203 -1.38,0.023 -0.213,-0.104 -0.574,-0.573 -0.287,-0.837 l 0.4,-0.256 c 0.096,-0.126 -0.005,-0.385 0.09,-0.51 0.17,0.013 0.454,0.155 0.716,0.14 0.274,-0.015 1.393,-0.234 1.52,-0.4 l 0.278,-0.972 c 0.11,-0.215 0.31,-0.29 0.364,-0.586 -0.04,-0.032 -0.042,-0.045 -0.062,-0.09 -0.39,-0.067 -0.63,-0.107 -0.946,-0.163 -0.047,-0.098 -0.135,-0.166 -0.186,-0.264 0.014,-0.1 0.01,-0.12 0.048,-0.178 0.036,-0.05 -0.006,-0.018 0.052,-0.037 0.188,-0.015 0.215,0.157 0.395,0.13 0.24,-0.035 1.02,-0.225 1.177,-0.368 0.33,-0.303 0.31,-0.9 0.715,-1.096 0.278,0.045 0.426,0.126 0.63,0.187 0.003,0.04 -0.023,0.046 0.052,0.07 -0.154,0.448 -0.612,0.58 -0.852,0.904 -0.294,0.395 -0.363,0.974 -0.554,1.495 -0.034,0.1 -0.205,0.373 -0.19,0.478 0.382,0.103 0.342,-0.425 0.63,-0.51 0.293,-0.024 0.658,0.077 0.824,-0.12 0.18,-0.215 0.08,-0.532 0.215,-0.796 0.15,-0.3 0.36,-0.655 0.46,-0.97 0.115,-0.355 -0.31,-0.475 0.034,-0.814 m 0.52,1.372 c -0.168,0.26 -0.453,0.7 -0.468,1 l 0.028,0.02 c 0.23,0.04 0.78,-0.117 0.935,-0.223 0.053,-0.325 -0.25,-0.595 -0.407,-0.782 l -0.09,-0.016 m -1.8,1.82 c -0.398,0.125 -0.565,0.42 -0.835,0.72 -0.36,0.407 -1.176,1.116 -0.81,1.916 0.177,0.386 0.723,0.854 1.334,0.68 0.15,-0.043 0.18,0.01 0.28,-0.09 -0.167,-0.326 -0.347,-1.184 -0.61,-1.39 0.006,-0.01 0.013,-0.018 0.02,-0.027 l 0.51,0.09 c 0.192,0.11 0.843,0.546 1.013,0.485 0.115,-0.416 0.418,-0.977 0.214,-1.323 -0.052,-0.004 -0.103,-0.008 -0.154,-0.01 -0.178,0.098 -0.278,0.4 -0.453,0.476 -0.17,0.074 -0.23,-0.237 -0.25,-0.336 -0.09,-0.4 0.023,-0.64 0.024,-1.125 A 23.464,23.464 0 0 0 49.633,12.744 M 9.788,32.99 c 0.092,-0.31 1.166,-1.207 1.41,-1.263 0.39,0 0.72,0.42 1.125,0.332 0.285,-0.454 0.232,-1.09 0.282,-1.643 0.034,-0.375 0.268,-0.846 0.55,-0.814 0.38,0.39 0.58,0.936 0.73,1.456 0.08,0.28 0.08,0.746 0.394,0.878 0.03,-0.018 0.06,-0.037 0.092,-0.054 0.235,-0.1 0.323,-0.71 0.473,-0.945 0.102,-0.023 0.28,-0.13 0.43,-0.013 0.25,0.238 0.047,0.578 0.013,0.95 -0.038,0.43 0.292,0.808 0.4,1.21 0.05,0.185 -0.027,0.31 0.022,0.51 0.1,0.417 0.917,0.288 1.24,0.553 0.124,0.104 0.108,0.29 0.206,0.402 0.177,0.206 0.5,0.177 0.722,0.367 l 0.254,0.288 -0.005,0.015 c -0.457,-0.11 -1.013,0.07 -1.41,0.142 -0.252,0.047 -0.6,-0.183 -0.866,-0.12 -0.038,0.13 -0.08,0.26 -0.12,0.392 -0.325,0.056 -0.762,0.035 -0.953,0.327 -0.11,0.165 0.038,0.3 -0.094,0.464 -0.106,0.013 -0.3,0.01 -0.407,0.05 -0.208,0.074 -0.336,0.305 -0.567,0.35 -0.257,0.053 -0.465,-0.274 -0.644,-0.013 l -0.088,-0.025 c -0.086,-0.284 -0.716,-0.32 -1.063,-0.442 0.133,-0.276 0.394,-0.257 0.506,-0.48 0.122,-0.236 -0.1,-0.426 -0.14,-0.59 C 12.16,34.8 12.213,34.232 12.053,33.828 A 75.222,75.222 0 0 0 11.546,33.661 C 11.338,33.615 11.129,33.571 10.92,33.524 10.79,33.447 10.678,33.322 10.562,33.271 10.274,33.141 9.979,33.207 9.795,33.018 L 9.788,32.985 m 3.3,-1.72 c 0.087,0.8 -0.624,1.258 0.5,1.54 0.16,0.038 0.264,0.02 0.37,-0.028 l 0.004,-0.015 c -0.31,-0.558 -0.327,-1.16 -0.754,-1.716 -0.05,0.008 -0.018,-0.003 -0.052,0.02 l -0.07,0.2 m 0.145,3.224 c 0.06,0.378 0.186,0.586 0.363,0.885 0.262,0.073 0.284,-0.066 0.438,-0.104 0.14,0.03 0.278,0.063 0.417,0.095 0.037,0 0.005,0.02 0.047,0 0.122,-0.02 0.188,-0.197 0.195,-0.375 -0.213,-0.238 -0.654,-0.627 -1.13,-0.554 -0.177,0.027 -0.198,-0.076 -0.33,0.054 m 3.985,-13.683 c 0.4,-0.407 0.803,-0.8 1.205,-0.86 0.96,-0.147 1.922,0.928 2.822,1.83 0.306,0.304 0.61,0.61 0.915,0.914 0.5,0.642 1.485,1.124 1.658,1.852 0.073,0.303 -0.185,1.71 -0.763,1.84 -0.28,0.063 -0.94,-0.115 -1.174,0.29 -0.067,0.118 -0.09,0.273 -0.13,0.41 -0.027,0.095 -0.71,1.016 -0.882,1.1 -0.21,0.1 -0.38,0.04 -0.58,0.064 -0.075,0.202 0.045,0.356 -0.152,0.56 l -0.01,0.01 c -0.198,-0.045 -0.44,-0.09 -0.658,-0.162 -0.066,-0.02 -0.495,-0.435 -0.528,-0.528 -0.14,-0.392 -0.47,-0.83 -0.732,-1.227 -0.223,-0.336 -0.567,-0.53 -0.753,-0.644 l -0.56,-0.453 c -0.135,-0.088 -0.426,-0.25 -0.55,-0.463 -0.59,-1.03 -0.363,-1.48 -0.215,-2.497 0.05,-0.328 0.284,-0.653 0.367,-0.97 l 0.107,-0.106 a 8.33,8.33 0 0 0 0.323,-0.625 c 0.098,-0.112 0.195,-0.222 0.29,-0.334 m 0.583,0.02 -0.7,0.895 c -0.374,0.687 -0.327,1.48 -0.15,2.176 0.036,0.146 0.202,0.69 0.398,0.763 l 0.053,0.01 c 0.25,-0.344 0.058,-1.952 0.892,-1.905 0.423,-0.14 0.66,0.788 0.85,1 0.28,-0.025 0.75,-0.04 0.98,-0.333 -0.038,-0.085 -0.037,-0.14 0.055,-0.226 0.345,-0.052 0.636,-0.28 0.968,-0.15 l 0.258,0.257 c -0.01,0.27 -0.076,0.545 -0.118,0.85 -0.09,0.667 -0.068,1.34 -0.43,2.024 -0.12,0.228 -0.317,0.323 -0.474,0.475 -0.26,-0.1 -0.428,-0.124 -0.73,-0.43 l 0.02,-0.582 a 5.002,5.002 0 0 1 -0.075,-0.054 c -0.09,-0.014 -0.09,0.177 -0.204,0.225 -0.266,0.113 -0.608,0.244 -0.84,-0.086 -0.032,-0.048 -0.132,-0.098 -0.13,-0.173 -0.05,-0.287 0.656,-1.646 0.012,-1.69 l -0.02,-0.022 c -0.152,0.29 -0.72,1.038 -0.658,1.303 0.01,0.178 0.308,0.304 0.388,0.538 0.18,0.532 0.913,1.312 1.464,1.744 0.19,0.148 0.144,0.318 0.334,0.377 0.16,-0.153 0.31,-0.057 0.473,-0.13 0.21,-0.092 0.703,-0.844 0.862,-1.097 l -0.043,-0.043 c -0.076,0.018 -0.126,-0.04 -0.173,-0.065 l -0.012,-0.033 c 0.2,-0.184 0.532,-0.076 0.657,-0.377 0.065,-0.154 -0.036,-0.298 0.033,-0.463 0.265,-0.108 0.734,-0.088 0.904,-0.452 0.378,-0.81 -1.127,-2.478 -2.024,-3.058 -0.137,-0.088 -0.425,-0.448 -0.624,-0.538 l -0.367,-0.345 c -0.45,-0.275 -0.87,-0.684 -1.324,-0.808 -0.143,0.1 -0.33,0.24 -0.505,0.42 m 1.54,3.477 c 0.013,0.064 0.027,0.13 0.042,0.194 0.062,0.06 0.072,0.067 0.13,0.066 l 0.01,-0.054 a 3.963,3.963 0 0 0 -0.01,-0.118 0.345,0.345 0 0 0 -0.152,-0.108 l -0.02,0.02 m -0.41,0.69 c -0.053,0.208 -0.075,0.302 -0.022,0.517 0.007,-0.007 0.015,-0.015 0.022,-0.02 0.025,-0.005 0.05,-0.01 0.075,-0.013 0.05,-0.156 0.043,-0.28 0.064,-0.43 l -0.064,-0.065 -0.075,0.01 m 1.303,-1.194 c 0.013,0.086 0.04,0.177 0.108,0.26 0.13,0.043 0.26,0.113 0.387,0.13 l 0.01,-0.012 -0.03,-0.183 c -0.146,-0.168 -0.182,-0.26 -0.356,-0.29 l -0.12,0.096 m 6.956,-10.697 c 0.424,-0.278 1.46,0.317 1.79,0.644 0.19,0.188 0.09,0.457 0.31,0.58 0.284,0.16 0.62,0.157 0.906,0.297 0.175,0.084 0.3,0.295 0.48,0.34 0.248,0.062 0.55,-0.102 0.785,0.03 0.083,0.043 0.115,0.13 0.12,0.212 -0.262,0.443 -1.04,1.01 -0.983,1.523 0.05,0.445 0.435,0.71 0.563,1.16 l 0.45,1.18 c 0.022,0.09 0.038,0.384 0.12,0.432 0.024,0.174 0.016,0.378 0.03,0.546 0.016,0.173 0.202,0.366 0.167,0.473 l -0.017,-0.026 c -0.473,-0.055 -0.872,-0.482 -1.236,-0.936 -0.3,-0.37 -0.5,-0.992 -0.813,-1.18 l -0.035,0.005 c -0.588,0.422 -0.678,1.033 -1.46,1.38 -0.198,-0.2 -0.68,-0.667 -0.624,-0.974 0.04,-0.215 0.227,-0.402 0.228,-0.624 l -0.074,-0.28 c -0.01,-0.16 0.045,-0.354 0.062,-0.515 0.015,-0.144 -0.222,-0.857 -0.417,-0.8 -0.172,0.052 -0.166,0.6 -0.162,0.726 0.01,0.322 0.125,0.656 0.138,0.985 0.026,0.66 -0.292,0.8 0.05,1.572 0.155,0.352 1.052,0.973 1.02,1.134 a 3.17,3.17 0 0 1 -0.01,0.097 c -0.103,0.076 -0.13,0.1 -0.22,0.108 -0.203,-0.08 -0.448,-0.17 -0.636,-0.328 -0.168,-0.142 -0.253,-0.324 -0.433,-0.407 l -0.045,0.012 c -0.3,0.557 -0.176,1.164 -1.078,1.603 l -0.127,-0.026 c -0.142,-0.207 -0.588,-0.653 -0.58,-0.912 l 0.15,-0.627 c 0.05,-0.52 0.047,-1.04 0.11,-1.55 l -0.054,-0.055 a 0.352,0.352 0 0 0 -0.034,0.004 c -0.176,0.252 -0.622,0.864 -0.982,0.92 -0.48,-0.717 0.018,-1.43 0.176,-2.032 0.09,-0.34 0.34,-1.625 0.278,-1.932 -0.05,-0.244 -0.22,-0.36 -0.263,-0.593 0.222,-0.254 0.484,-0.245 0.75,-0.33 0.226,0.404 0.063,0.68 0.03,1.074 -0.066,0.794 -0.38,1.61 -0.588,2.375 -0.058,0.215 -0.168,0.41 -0.185,0.632 l 0.076,0.06 c 0.097,-0.083 1.17,-1.13 1.19,-1.184 0.17,-0.496 -0.585,-1.69 0.39,-1.843 0.16,0.088 0.617,0.3 0.79,0.317 l 0.04,-0.025 c 0.147,-0.534 -0.026,-0.595 -0.456,-0.885 0.03,-0.27 0.09,-0.427 0.27,-0.67 0.245,0.147 0.45,0.208 0.7,0.176 0.223,-0.46 -0.82,-1.31 -0.66,-1.86 m -0.663,3.643 c -0.06,0.16 -0.177,0.442 -0.004,0.605 l 0.098,-0.045 c 0.083,-0.187 0.128,-0.32 0.108,-0.528 -0.084,-0.1 -0.128,-0.05 -0.202,-0.03 m 1.714,-0.8 c -0.02,0.06 -0.04,0.08 -0.03,0.147 0.01,0.03 0.018,0.062 0.025,0.093 0.04,0.015 0.082,0.03 0.123,0.047 0.023,-0.03 0.047,-0.057 0.07,-0.084 -0.05,-0.113 -0.028,-0.176 -0.115,-0.233 -0.023,0.01 -0.048,0.018 -0.072,0.03 m -1.398,1.612 c -0.166,0.28 -0.323,0.843 0.138,1.095 l 0.042,-0.047 c 0.114,-0.294 0.253,-0.913 0.117,-1.208 a 1.283,1.283 0 0 0 -0.297,0.16 m 3.14,-1.85 c -0.01,0.07 -0.01,0.12 0.025,0.203 l 0.03,0.018 0.106,-0.142 -0.03,-0.072 c -0.022,-0.016 -0.044,-0.03 -0.066,-0.047 l -0.065,0.04 m -3.87,2.567 -0.15,0.135 0.047,0.097 c 0.104,-0.013 0.186,0 0.28,-0.075 l 0.026,-0.127 -0.105,-0.076 -0.098,0.045 m 2.785,-1.086 c -0.044,0.254 -0.212,0.478 -0.23,0.734 0.018,0.026 0.035,0.05 0.052,0.077 h 0.055 c 0.21,-0.144 0.575,-0.662 0.296,-0.796 C 28.98,17.167 29,17.14 28.893,17.194 m -2.44,2.082 c 0.005,0.245 -0.108,0.913 -0.007,1.098 l 0.026,-0.017 a 2.98,2.98 0 0 0 0.1,-0.068 c 0.01,-0.337 0.443,-0.672 0.05,-1.034 l -0.106,-0.02 -0.063,0.042"
       inkscape:connector-curvature="0" />
  </g>
</svg>
